PathFileType	4	(X/Y/Z)	2014001\dynamic\2014001_C3_03.trc
DataRate	CameraRate	NumFrames	NumMarkers	Units	OrigDataRate	OrigDataStartFrame	OrigNumFrames
100.000000	100.000000	4	52	mm	100.000000	91	183
Frame#	Time	L_IAS			L_IPS			R_IPS			R_IAS			L_FTC			L_FLE			L_FME			L_FAX			L_TTC			L_FAL			L_TAM			L_FCC			L_FM1			L_FM2			L_FM5			R_FTC			R_FLE			R_FME			R_FAX			R_TTC			R_FAL			R_TAM			R_FCC			R_FM1			R_FM2			R_FM5			CV7			TV10			SXS			SJN			L_SIA			L_SRS			L_SAA			L_SAE			L_HLE			L_HME			L_UOA			L_RSP			L_UHE			L_HM2			L_HM5			R_SIA			R_SRS			R_SAA			R_SAE			R_HLE			R_HME			R_UOA			R_RSP			R_UHE			R_HM2			R_HM5			
		X1	Y1	Z1	X2	Y2	Z2	X3	Y3	Z3	X4	Y4	Z4	X5	Y5	Z5	X6	Y6	Z6	X7	Y7	Z7	X8	Y8	Z8	X9	Y9	Z9	X10	Y10	Z10	X11	Y11	Z11	X12	Y12	Z12	X13	Y13	Z13	X14	Y14	Z14	X15	Y15	Z15	X16	Y16	Z16	X17	Y17	Z17	X18	Y18	Z18	X19	Y19	Z19	X20	Y20	Z20	X21	Y21	Z21	X22	Y22	Z22	X23	Y23	Z23	X24	Y24	Z24	X25	Y25	Z25	X26	Y26	Z26	X27	Y27	Z27	X28	Y28	Z28	X29	Y29	Z29	X30	Y30	Z30	X31	Y31	Z31	X32	Y32	Z32	X33	Y33	Z33	X34	Y34	Z34	X35	Y35	Z35	X36	Y36	Z36	X37	Y37	Z37	X38	Y38	Z38	X39	Y39	Z39	X40	Y40	Z40	X41	Y41	Z41	X42	Y42	Z42	X43	Y43	Z43	X44	Y44	Z44	X45	Y45	Z45	X46	Y46	Z46	X47	Y47	Z47	X48	Y48	Z48	X49	Y49	Z49	X50	Y50	Z50	X51	Y51	Z51	X52	Y52	Z52	

92	0.91	409.515075683594	882.928100585938	831.5847167968755	341.2117004394532	919.620727539063	650.3457641601565	250.8977355957032	915.8115844726567	644.691345214844	170.3027954101563	885.6614379882817	820.8909301757817	467.1648254394534	795.8217773437505	759.6889648437502	423.3259582519534	440.4347229003909	794.9092407226567	307.7852172851564	438.5456848144534	813.3715209960942	425.1020202636721	378.5546875000001	775.4924316406255	375.9904174804689	360.0173645019532	835.4995117187505	371.2611694335939	61.28745269775393	734.148132324219	284.1716918945314	73.6882247924805	757.0998535156252	325.7494201660157	22.14441108703614	690.4565429687502	298.0786437988282	27.35954666137697	871.285034179688	361.343231201172	36.73131942749025	880.1577758789067	407.1556701660159	23.36644363403321	826.2025756835942	116.1157989501954	788.3165893554692	725.470642089844	104.6844635009766	448.3843994140627	787.2109375000005	220.4311828613282	417.7929382324221	823.4402465820317	99.81316375732428	409.0281066894534	744.2376708984377	137.5365753173829	357.0833129882814	796.5209350585942	148.7652893066407	211.8092041015626	504.700378417969	223.7030334472657	183.3940734863282	552.601745605469	214.2893981933595	212.261444091797	459.8729248046877	196.1585845947267	62.45843124389651	557.3040771484377	138.4461669921876	73.29969024658206	555.8765258789065	108.2260513305665	107.1778640747071	508.2190246582034	288.2397460937501	1384.612915039063	674.7243652343752	296.7628784179689	1149.718139648438	619.3001098632815	300.1531372070314	1163.8515625	852.0827026367192	295.5603637695314	1324.72412109375	803.458374023438	391.560974121094	1190.914184570313	614.128601074219	378.0398864746095	1321.522338867188	631.7956542968752	488.9029235839846	1324.573364257813	704.6040649414065	471.4795837402346	1335.7607421875	744.6191406250002	555.456726074219	1051.8212890625	747.5067138671877	485.5103454589846	1015.053955078125	712.5266723632815	535.6592407226565	1014.441467285157	715.389831542969	504.1843566894534	832.2639770507817	861.7304077148442	577.7556152343752	825.8103637695317	828.2000122070317	508.8561706542971	757.3940429687502	904.0078735351567	583.3394775390627	748.621520996094	834.8645019531255	182.5928192138672	1192.783081054688	611.0805664062502	203.6691894531251	1315.14501953125	635.5628051757815	100.5982055664063	1313.793334960938	711.7264404296877	113.4561843872071	1320.644287109375	759.7539062500002	50.14046478271487	1015.68310546875	728.317565917969	126.3398056030274	1000.013916015625	703.1708984375002	80.51037597656253	992.4524536132817	699.311462402344	84.97563934326175	809.5127563476567	831.0630493164067	20.84360885620118	806.0250854492192	780.7533569335942	74.7356872558594	720.7556762695315	860.4550781250005	20.09154129028321	727.785583496094	773.3320922851567	
93	0.92	411.0730285644534	883.150024414063	840.1503295898442	342.3597717285157	920.5363769531255	659.204040527344	252.0346221923829	916.8732910156255	654.1640625000002	171.8299407958985	887.446655273438	830.0110473632817	467.9801025390627	795.9469604492192	767.523620605469	423.7519531250002	440.3940124511721	796.7680664062505	308.4024658203126	438.278747558594	815.6477661132817	425.4199218750002	378.7142333984376	776.8978881835942	376.3511352539064	359.7156066894532	836.7250366210942	371.2708129882814	61.47672271728518	734.2705688476565	284.2043762207032	73.92823028564456	757.4195556640627	325.7150878906251	22.4589023590088	690.7443847656252	298.163055419922	27.34080886840822	871.333129882813	361.4193115234376	36.651424407959	880.301147460938	407.2809753417971	23.34497642517091	826.2404785156255	116.6373367309571	790.0037231445317	735.776794433594	105.3380661010743	451.0595397949221	804.993286132813	220.9495849609376	421.3128662109377	841.7516479492192	100.6325912475587	411.1560974121096	762.9887695312502	138.0390014648438	360.255584716797	816.5116577148442	149.8883666992188	207.6358947753907	528.693298339844	224.5396728515626	180.5058746337891	577.401062011719	215.3176269531251	205.5105743408204	483.391784667969	194.7566375732423	60.59876251220706	588.286560058594	137.2658691406251	72.9076843261719	586.7083740234377	107.6464233398438	104.6388549804688	537.528015136719	289.2189025878907	1385.682495117188	684.4144287109377	298.5418701171876	1150.867309570313	628.6199340820315	300.4967651367189	1164.536987304688	861.4372558593755	295.7613830566407	1325.588012695313	813.0839233398442	393.624450683594	1192.35498046875	624.4827880859377	379.6343688964845	1322.910034179688	641.9395141601565	489.9263000488284	1326.248413085938	715.932312011719	471.8168945312502	1337.349853515625	755.7485961914065	557.191345214844	1054.007568359375	762.8457031250002	488.1650695800784	1016.227294921875	727.2359008789065	538.3400878906252	1015.684936523438	731.0806884765627	503.2224426269534	837.3219604492192	881.657348632813	577.2231445312502	829.7131958007817	849.691528320313	506.8321838378909	763.9388427734377	926.4472045898442	582.5551757812502	752.8319091796877	858.7405395507817	184.6882781982422	1193.895141601563	619.4109497070315	205.1957092285157	1316.103271484375	644.5844726562502	101.5060119628907	1314.498779296875	719.8489990234377	113.752784729004	1321.112182617188	768.1649780273442	51.75508499145511	1016.530700683594	732.854675292969	128.4603729248047	1001.237243652344	708.636901855469	82.59095764160159	993.9416503906255	704.0244140625002	84.04892730712893	808.3200683593755	831.453247070313	20.78551864624024	806.2859497070317	780.4609375000005	73.28034210205081	718.4970703125002	858.404663085938	19.73713302612305	728.282897949219	770.9793090820317	
94	0.93	412.5862731933596	883.221557617188	848.6271362304692	343.3867797851564	921.311645507813	668.0108032226565	253.0469818115236	917.803344726563	663.5231933593752	173.3336791992188	889.0601196289067	839.1321411132817	468.7350769042971	795.9802246093755	775.210815429688	424.1350402832034	440.3592834472659	798.5750122070317	309.0028381347657	437.988952636719	817.897583007813	425.7002258300784	378.8845214843751	778.2459106445317	376.714080810547	359.4356384277345	837.9120483398442	371.2628173828126	61.69688415527347	734.415710449219	284.2198486328126	74.19405364990237	757.7650146484377	325.659393310547	22.80056953430176	691.0363769531252	298.250946044922	27.35073089599611	871.4036254882817	361.4915466308595	36.5934410095215	880.4548339843755	407.401550292969	23.36217498779298	826.280395507813	117.0868301391602	791.5458984375005	746.0740356445315	106.0769577026368	453.7379150390627	822.4066772460942	221.553680419922	424.8448181152346	859.6462402343755	101.5200653076172	413.1381835937502	781.4282226562505	138.5916748046876	363.5070800781251	836.3339843750005	150.8792572021485	202.3773040771486	553.2964477539065	225.2417907714845	176.7983093261719	602.8599243164065	216.1865386962892	197.6018829345704	507.6144714355471	193.4905700683595	58.36950302124026	620.2122802734377	136.2359771728516	71.96866607666018	618.3220214843752	107.185043334961	101.1738739013672	567.6086425781252	290.1307067871095	1386.614501953125	694.087097167969	300.2297363281251	1151.87451171875	637.9398193359377	300.8296813964845	1165.101684570313	870.807983398438	295.9225463867189	1326.309936523438	822.7020874023442	395.5516357421877	1193.620483398438	634.8186645507815	381.112030029297	1324.1416015625	651.999450683594	490.8332824707034	1327.797119140625	727.0861816406252	472.1119689941409	1338.830810546875	766.7141723632815	558.8135375976565	1056.148315429688	777.9863891601567	490.6705017089846	1017.326049804688	741.9511718750002	540.8550415039065	1016.905456542969	746.627380371094	502.2093200683596	842.5217285156255	901.3198242187505	576.5398559570315	833.763793945313	870.8978881835942	504.6786804199221	770.6557617187505	948.5468139648442	581.570983886719	757.2559204101565	882.3295288085942	186.7051086425782	1194.837646484375	627.7983398437502	206.6484527587892	1316.904296875	653.610046386719	102.3838729858399	1315.06982421875	727.9895629882815	114.0156173706055	1321.449340820313	776.5886230468755	53.20749282836917	1017.30615234375	737.310485839844	130.4015655517579	1002.352233886719	714.0189208984377	84.49764251708987	995.319946289063	708.6697998046877	82.95063781738284	807.3093872070317	831.9666137695317	20.71107482910157	806.595825195313	780.2498168945317	71.66847991943362	716.5666503906252	856.642211914063	19.4704933166504	728.843200683594	768.8876342773442	
95	0.9400000000000001	414.0222778320315	883.1311645507817	857.0319824218755	344.2974853515626	921.9431152343755	676.7795410156252	253.9416961669923	918.5905761718755	672.751647949219	174.7828216552735	890.4696655273442	848.2308959960942	469.4286193847659	795.928344726563	782.7693481445317	424.473815917969	440.3188781738284	800.3516235351567	309.584930419922	437.6648254394534	820.1353149414067	425.9423828125002	379.0535888671876	779.5549926757817	377.0791320800782	359.1641235351564	839.0751342773442	371.2333068847657	61.93712234497073	734.5782470703127	284.2166748046876	74.47827148437503	758.123718261719	325.5774841308595	23.1643295288086	691.3090820312502	298.3504943847657	27.39066696166994	871.499145507813	361.5652160644532	36.55065917968751	880.6099243164067	407.5163574218752	23.4070053100586	826.3154907226567	117.4752273559571	792.915161132813	756.3256835937502	106.8984832763672	456.3608093261721	839.4608764648442	222.2631988525392	428.3348388671877	877.111694335938	102.4747772216797	414.9018249511721	799.5621948242192	139.2163238525391	366.7796630859376	855.9702148437505	151.7423553466797	196.1422271728517	578.5142211914065	225.8211669921876	172.3489074707032	628.9643554687502	216.9075164794923	188.6553955078126	532.5714111328127	192.3312072753907	55.86736297607425	652.9620361328127	135.3269500732422	70.55810546875003	650.579284667969	106.8163146972657	96.93531799316412	598.3663330078127	290.983123779297	1387.39990234375	703.7515869140627	301.829071044922	1152.73193359375	647.264343261719	301.1514587402345	1165.530151367188	880.1973266601567	296.0456542968751	1326.872802734375	832.3227539062505	397.3582458496096	1194.709838867188	645.128845214844	382.4794311523439	1325.20556640625	661.9913330078127	491.6352539062502	1329.203735351563	738.0865478515627	472.3739013671877	1340.1865234375	777.535766601563	560.324157714844	1058.209594726563	792.9064941406255	493.0027160644534	1018.338500976563	756.651794433594	543.1865234375002	1018.072021484375	762.009948730469	501.1393127441409	847.8225708007817	920.6940307617192	575.7109375000002	837.9194946289067	891.777954101563	502.4132385253909	777.4998168945317	970.2680664062505	580.388122558594	761.8450317382815	905.582641601563	188.6480102539063	1195.593994140625	636.2473144531252	208.0293884277345	1317.535766601563	662.652038574219	103.235954284668	1315.489624023438	736.1552734375002	114.252670288086	1321.642700195313	785.0256347656255	54.49604034423831	1017.996826171875	741.714294433594	132.1488952636719	1003.341857910157	719.3389282226565	86.2214050292969	996.573608398438	713.269226074219	81.7094421386719	806.4404296875005	832.6646118164067	20.62832260131837	806.9116821289067	780.145141601563	69.91453552246097	714.9171142578127	855.213256835938	19.30751037597657	729.4070434570315	767.0816040039065	
